<?xml version="1.0" encoding="UTF-8" standalone="no"?> <svg width="64" height="64" viewBox="0 0 64 64" fill="none" xmlns="http://www.w3.org/2000/svg">
<path d="M60 9.5C59.6022 9.5 59.2206 9.65804 58.9393 9.93934C58.658 10.2206 58.5 10.6022 58.5 11V58.4H11C10.6022 58.4 10.2206 58.558 9.93934 58.8393C9.65804 59.1206 9.5 59.5022 9.5 59.9C9.5 60.2978 9.65804 60.6794 9.93934 60.9607C10.2206 61.242 10.6022 61.4 11 61.4H60C60.3978 61.4 60.7794 61.242 61.0607 60.9607C61.342 60.6794 61.5 60.2978 61.5 59.9V11C61.5 10.6022 61.342 10.2206 61.0607 9.93934C60.7794 9.65804 60.3978 9.5 60 9.5Z" fill="black"/>
<path d="M54.2101 52.61V4C54.2101 3.60218 54.0521 3.22064 53.7708 2.93934C53.4895 2.65804 53.1079 2.5 52.7101 2.5H4.11011C3.71228 2.5 3.33075 2.65804 3.04945 2.93934C2.76814 3.22064 2.61011 3.60218 2.61011 4V52.6C2.61011 52.9978 2.76814 53.3794 3.04945 53.6607C3.33075 53.942 3.71228 54.1 4.11011 54.1H52.7101C53.1062 54.1 53.4862 53.9433 53.7672 53.6642C54.0483 53.3851 54.2075 53.0061 54.2101 52.61ZM5.61011 5.51H51.2101V29.89L39.2101 17.89C38.9272 17.6085 38.5442 17.4505 38.1451 17.4505C37.746 17.4505 37.3631 17.6085 37.0801 17.89L25.5701 29.34L21.2001 24.41C20.9533 24.132 20.612 23.9556 20.2425 23.9149C19.8729 23.8743 19.5015 23.9723 19.2001 24.19L5.61011 34V5.51Z" fill="black"/>
<path d="M15.41 8.70996C8.96001 8.91996 8.96001 18.27 15.41 18.47C21.86 18.27 21.86 8.91996 15.41 8.70996Z" fill="black"/>
</svg>
